<svg version="1.1" viewBox="0.0 0.0 500.0 500.0" fill="none" stroke="none" stroke-linecap="square" stroke-miterlimit="10" xmlns:xlink="http://www.w3.org/1999/xlink" xmlns="http://www.w3.org/2000/svg"><clipPath id="g3203dc6f720_1_75.0"><path d="m0 0l500.0 0l0 500.0l-500.0 0l0 -500.0z" clip-rule="nonzero"/></clipPath><g clip-path="url(#g3203dc6f720_1_75.0)"><path fill="#ffffff" d="m0 0l500.0 0l0 500.0l-500.0 0z" fill-rule="evenodd"/><path fill="#246beb" d="m249.67267 67.129814l91.787476 0l0 0c50.69281 0 91.787445 41.094643 91.787445 91.78745c0 50.69281 -41.094635 91.78746 -91.787445 91.78746l-91.787476 0z" fill-rule="evenodd"/><path fill="#246beb" d="m250.32918 67.129814l-91.78746 0l0 0c-50.69281 0 -91.78745 41.094643 -91.78745 91.78745c0 50.69281 41.094643 91.78746 91.78745 91.78746l91.78746 0z" fill-rule="evenodd"/><path fill="#246beb" d="m249.67267 158.91727l0 0c0 -50.69281 41.094635 -91.78745 91.787476 -91.78745l0 0c24.343536 0 47.690033 9.670433 64.9035 26.883919c17.213501 17.213493 26.883942 40.559982 26.883942 64.903534l0 0c0 50.69281 -41.094635 91.78746 -91.787445 91.78746l0 0c-50.69284 0 -91.787476 -41.09465 -91.787476 -91.78746z" fill-rule="evenodd"/><path fill="#246beb" d="m249.67267 249.29597l91.787476 0l0 0c50.69281 0 91.787445 41.09465 91.787445 91.78746c0 50.69281 -41.094635 91.787445 -91.787445 91.787445l-91.787476 0z" fill-rule="evenodd"/><path fill="#246beb" d="m250.32918 249.29597l-91.78746 0l0 0c-50.69281 0 -91.78745 41.09465 -91.78745 91.78746c0 50.69281 41.094643 91.787445 91.78745 91.787445l91.78746 0z" fill-rule="evenodd"/><path fill="#246beb" d="m66.754265 341.08344l0 0c0 -50.69281 41.094643 -91.78746 91.78745 -91.78746l0 0c24.343552 0 47.69005 9.670425 64.903534 26.883926c17.213486 17.213501 26.883926 40.559998 26.883926 64.903534l0 0c0 50.69281 -41.09465 91.787445 -91.78746 91.787445l0 0c-50.69281 0 -91.78745 -41.094635 -91.78745 -91.787445z" fill-rule="evenodd"/><path fill="#ffffff" d="m343.41507 250.6839l0 0c-33.017975 0.70339966 -63.868347 -16.3853 -80.78552 -44.74881c-16.917175 -28.36351 -17.29277 -63.62863 -0.9835205 -92.346016c16.309235 -28.717384 46.788666 -46.45926 79.81412 -46.45926z" fill-rule="evenodd"/><path fill="#ffffff" d="m156.58679 432.85007l0 0c33.017944 0.70339966 63.868347 -16.385284 80.78551 -44.74881c16.917175 -28.363495 17.29277 -63.62863 0.98353577 -92.34601c-16.30925 -28.717407 -46.78868 -46.459274 -79.81412 -46.459274z" fill-rule="evenodd"/></g></svg>